<?xml version="1.0" encoding="UTF-8"?>
<svg width="977px" height="447px" viewBox="0 0 977 447" version="1.1" xmlns="http://www.w3.org/2000/svg" xmlns:xlink="http://www.w3.org/1999/xlink">
    <!-- Generator: Sketch 58 (84663) - https://sketch.com -->
    <title>logo_1 copy 2@2x</title>
    <desc>Created with Sketch.</desc>
    <defs>
        <linearGradient x1="22.5235674%" y1="52.3982344%" x2="76.3378741%" y2="41.8500394%" id="linearGradient-1">
            <stop stop-color="#FF0076" offset="0%"></stop>
            <stop stop-color="#FF8100" offset="100%"></stop>
        </linearGradient>
        <path d="M874.358207,90.8433947 L851.270253,90.8433947 C832.920292,37.2607105 782.875575,0.718598684 726.004055,0.718598684 L162.261053,0.718598684 C105.389532,0.718598684 55.3448148,37.2607105 36.9948538,90.8433947 L13.9086355,90.8433947 C6.22653021,90.8433947 0,97.146 0,104.925888 L0,165.009671 C0,172.787803 6.22479532,179.092164 13.9086355,179.092164 L29.6718713,179.092164 L29.6718713,180.030178 C29.6718713,278.902737 109.116082,359.34 206.767992,359.34 C332.469649,359.34 435.574327,259.499566 442.801891,134.028888 L445.464951,134.028888 C452.69078,259.499566 555.797193,359.34 681.49885,359.34 C779.15076,359.34 858.594971,278.902737 858.594971,180.030178 L858.594971,179.092164 L874.358207,179.092164 C882.040312,179.092164 888.266842,172.789559 888.266842,165.009671 L888.266842,104.925888 C888.266842,97.146 882.040312,90.8433947 874.358207,90.8433947 Z M681.49885,300.195987 C644.335712,300.195987 609.802671,288.602566 581.228986,268.804164 C575.241871,264.656882 578.229357,255.132711 585.482943,255.132711 L757.010058,255.132711 C763.731033,255.132711 767.025595,263.497539 762.098499,268.124368 C740.918928,288.012355 712.593333,300.195987 681.49885,300.195987 Z M522.893216,201.755546 C517.681598,191.442671 513.424172,180.557151 510.237173,169.220191 C507.529006,159.588868 514.598694,149.987408 524.487583,149.987408 L785.344327,149.987408 C793.536491,149.987408 800.179396,156.713349 800.179396,165.007914 L800.179396,180.028421 C800.179396,185.854993 799.768226,191.584954 798.97191,197.191954 C797.9223,204.585395 791.650663,210.071191 784.273899,210.071191 L536.175556,210.071191 C530.551033,210.071191 525.455653,206.826789 522.893216,201.755546 Z M503.474561,89.9053816 L503.474561,74.884875 C503.474561,66.5903092 510.117466,59.8643684 518.30963,59.8643684 L726.004055,59.8643684 C744.808558,59.8643684 761.992671,66.9872961 775.077232,78.7071908 C785.273197,87.8396447 778.781228,104.925888 765.169259,104.925888 L518.30963,104.925888 C510.117466,104.925888 503.474561,98.1999474 503.474561,89.9053816 Z M206.767992,300.195987 C175.673509,300.195987 147.346179,288.012355 126.168343,268.124368 C121.241248,263.497539 124.535809,255.132711 131.256784,255.132711 L302.783899,255.132711 C310.03922,255.132711 313.023236,264.653368 307.037856,268.804164 C278.462437,288.600809 243.929396,300.195987 206.767992,300.195987 Z M103.991209,210.071191 C96.6144444,210.071191 90.342807,204.587151 89.2931969,197.191954 C88.4968811,191.584954 88.0857115,185.854993 88.0857115,180.028421 L88.0857115,165.007914 C88.0857115,156.713349 94.728616,149.987408 102.92078,149.987408 L363.775789,149.987408 C373.666413,149.987408 380.734366,159.587112 378.026199,169.220191 C374.839201,180.557151 370.580039,191.440914 365.370156,201.755546 C362.809454,206.826789 357.715809,210.071191 352.089552,210.071191 L103.991209,210.071191 Z M123.097583,104.925888 C109.483879,104.925888 102.993645,87.8396447 113.18961,78.7071908 C126.272437,66.9872961 143.45655,59.8643684 162.261053,59.8643684 L369.955478,59.8643684 C378.147641,59.8643684 384.790546,66.5903092 384.790546,74.884875 L384.790546,89.9053816 C384.790546,98.1999474 378.147641,104.925888 369.955478,104.925888 L123.097583,104.925888 Z" id="path-2"></path>
        <filter x="-8.4%" y="-16.7%" width="116.9%" height="141.8%" filterUnits="objectBoundingBox" id="filter-3">
            <feOffset dx="0" dy="15" in="SourceAlpha" result="shadowOffsetOuter1"></feOffset>
            <feGaussianBlur stdDeviation="22.5" in="shadowOffsetOuter1" result="shadowBlurOuter1"></feGaussianBlur>
            <feColorMatrix values="0 0 0 0 0.959210824   0 0 0 0 0.313059508   0 0 0 0 0.47244397  0 0 0 0.5 0" type="matrix" in="shadowBlurOuter1"></feColorMatrix>
        </filter>
    </defs>
    <g id="Page-1" stroke="none" stroke-width="1" fill="none" fill-rule="evenodd">
        <g id="1024x1024" transform="translate(-24.000000, -304.000000)">
            <g id="Group">
                <g id="1024x1024">
                    <g id="logo_1-copy-2" transform="translate(68.000000, 333.000000)">
                        <g id="Group-2">
                            <g id="sunglasses">
                                <polygon id="Path-2" points="64.419441 143.649671 88.0857115 272.476544 217.020012 334.242094 339.441501 277.664349 438.218925 104.925888 471.755594 104.925888 541.504583 272.476544 654.411765 334.242094 752.271446 316.552676 813.870783 233.3407 830.031554 150.236842 771.598668 44.8421053 301.029412 36.7690401 101.015693 44.8421053"></polygon>
                                <g id="Shape">
                                    <use fill="black" fill-opacity="1" filter="url(#filter-3)" xlink:href="#path-2"></use>
                                    <use fill="url(#linearGradient-1)" fill-rule="evenodd" xlink:href="#path-2"></use>
                                </g>
                            </g>
                        </g>
                    </g>
                </g>
            </g>
        </g>
    </g>
</svg>