<svg id="Layer_1" data-name="Layer 1" xmlns="http://www.w3.org/2000/svg" xmlns:xlink="http://www.w3.org/1999/xlink" viewBox="0 0 375 375"><defs><style>.cls-1{fill:none;}.cls-2{clip-path:url(#clip-path);}.cls-3{clip-path:url(#clip-path-2);}.cls-4{fill:url(#linear-gradient);}.cls-5{clip-path:url(#clip-path-3);}.cls-6{clip-path:url(#clip-path-4);}.cls-7{fill:url(#linear-gradient-2);}.cls-8{clip-path:url(#clip-path-5);}.cls-9{clip-path:url(#clip-path-6);}.cls-10{fill:url(#linear-gradient-3);}.cls-11{clip-path:url(#clip-path-7);}.cls-12{clip-path:url(#clip-path-8);}.cls-13{fill:url(#linear-gradient-4);}.cls-14{clip-path:url(#clip-path-9);}.cls-15{clip-path:url(#clip-path-10);}.cls-16{fill:url(#linear-gradient-5);}</style><clipPath id="clip-path"><rect class="cls-1" x="329" y="82" width="36.38" height="36"/></clipPath><clipPath id="clip-path-2"><path class="cls-1" d="M351.68,82.85a18.45,18.45,0,0,0-2.79-.46,18.47,18.47,0,0,0-5.61.43,16.92,16.92,0,0,0-2.69.88A18,18,0,0,0,338.08,85a18.59,18.59,0,0,0-2.28,1.68,17,17,0,0,0-2,2,19.34,19.34,0,0,0-1.65,2.3c-.27.63-.62,1.17-.89,1.72a12.19,12.19,0,0,0-1,3c-.14.56-.25,1.13-.34,1.7a17.16,17.16,0,0,0-.17,1.73c0,.59,0,1.16,0,1.75s.09,1.15.17,1.73.2,1.14.34,1.7.31,1.12.5,1.67.42,1.08.67,1.6a16.54,16.54,0,0,0,1.78,3c.34.46.71.91,1.1,1.35s.8.84,1.22,1.23.88.75,1.35,1.1a15.76,15.76,0,0,0,1.44,1,16,16,0,0,0,1.53.82c.52.25,1.06.47,1.6.67a16.68,16.68,0,0,0,1.66.51,18.39,18.39,0,0,0,2.74.44,17.08,17.08,0,0,0,2.77,0,16.77,16.77,0,0,0,2.74-.41,17.37,17.37,0,0,0,2.65-.84,16.35,16.35,0,0,0,2.48-1.23,17,17,0,0,0,2.26-1.59,19.21,19.21,0,0,0,2-1.93,18.94,18.94,0,0,0,1.67-2.22l1.3-2.61h.07a16.16,16.16,0,0,0,.83-2.55c.13-.56.24-1.13.32-1.7s.13-1.15.16-1.73a17.57,17.57,0,0,0-.54-5.16c-.14-.56-.31-1.12-.5-1.66s-.43-1.08-.68-1.6a16.13,16.13,0,0,0-.82-1.53c-.29-.49-.62-1-1-1.44s-.72-.91-1.1-1.34-.8-.84-1.23-1.23-.88-.75-1.34-1.1a17.15,17.15,0,0,0-1.44-1c-.5-.3-1-.57-1.53-.82s-1.06-.47-1.6-.67S352.24,83,351.68,82.85Z"/></clipPath><linearGradient id="linear-gradient" x1="780.61" y1="212.68" x2="841.52" y2="212.68" gradientTransform="matrix(0.67, 0.14, 0.14, -0.67, -227.8, 130.14)" gradientUnits="userSpaceOnUse"><stop offset="0" stop-color="#2771e0"/><stop offset="0.06" stop-color="#2771e0"/><stop offset="0.09" stop-color="#2771e0"/><stop offset="0.11" stop-color="#2870df"/><stop offset="0.13" stop-color="#286fde"/><stop offset="0.14" stop-color="#296ede"/><stop offset="0.16" stop-color="#296ddd"/><stop offset="0.17" stop-color="#2a6ddd"/><stop offset="0.19" stop-color="#2a6cdc"/><stop offset="0.2" stop-color="#2b6bdb"/><stop offset="0.22" stop-color="#2b6adb"/><stop offset="0.23" stop-color="#2c69da"/><stop offset="0.25" stop-color="#2c69da"/><stop offset="0.26" stop-color="#2d68d9"/><stop offset="0.27" stop-color="#2d67d9"/><stop offset="0.27" stop-color="#2e67d8"/><stop offset="0.28" stop-color="#2e66d8"/><stop offset="0.29" stop-color="#2e65d7"/><stop offset="0.3" stop-color="#2f65d7"/><stop offset="0.3" stop-color="#2f64d6"/><stop offset="0.31" stop-color="#3063d6"/><stop offset="0.32" stop-color="#3063d6"/><stop offset="0.33" stop-color="#3062d5"/><stop offset="0.34" stop-color="#3161d5"/><stop offset="0.34" stop-color="#3161d4"/><stop offset="0.35" stop-color="#3160d4"/><stop offset="0.36" stop-color="#325fd3"/><stop offset="0.37" stop-color="#325fd3"/><stop offset="0.38" stop-color="#335ed3"/><stop offset="0.38" stop-color="#335dd2"/><stop offset="0.39" stop-color="#335dd2"/><stop offset="0.4" stop-color="#345cd1"/><stop offset="0.41" stop-color="#345bd1"/><stop offset="0.41" stop-color="#355bd0"/><stop offset="0.42" stop-color="#355ad0"/><stop offset="0.43" stop-color="#3559cf"/><stop offset="0.44" stop-color="#3659cf"/><stop offset="0.45" stop-color="#3658cf"/><stop offset="0.45" stop-color="#3657ce"/><stop offset="0.46" stop-color="#3757ce"/><stop offset="0.47" stop-color="#3756cd"/><stop offset="0.48" stop-color="#3855cd"/><stop offset="0.48" stop-color="#3855cc"/><stop offset="0.49" stop-color="#3854cc"/><stop offset="0.5" stop-color="#3953cb"/><stop offset="0.51" stop-color="#3953cb"/><stop offset="0.52" stop-color="#3a52cb"/><stop offset="0.52" stop-color="#3a51ca"/><stop offset="0.53" stop-color="#3a51ca"/><stop offset="0.54" stop-color="#3b50c9"/><stop offset="0.55" stop-color="#3b4fc9"/><stop offset="0.55" stop-color="#3b4fc8"/><stop offset="0.56" stop-color="#3c4ec8"/><stop offset="0.57" stop-color="#3c4dc7"/><stop offset="0.58" stop-color="#3d4dc7"/><stop offset="0.59" stop-color="#3d4cc6"/><stop offset="0.59" stop-color="#3e4bc6"/><stop offset="0.6" stop-color="#3e4ac5"/><stop offset="0.61" stop-color="#3f49c4"/><stop offset="0.62" stop-color="#3f48c4"/><stop offset="0.63" stop-color="#4047c3"/><stop offset="0.63" stop-color="#4047c3"/><stop offset="0.64" stop-color="#4146c2"/><stop offset="0.65" stop-color="#4145c1"/><stop offset="0.66" stop-color="#4244c1"/><stop offset="0.66" stop-color="#4243c0"/><stop offset="0.67" stop-color="#4342c0"/><stop offset="0.68" stop-color="#4342bf"/><stop offset="0.69" stop-color="#4441be"/><stop offset="0.7" stop-color="#4440be"/><stop offset="0.7" stop-color="#453fbd"/><stop offset="0.71" stop-color="#453ebd"/><stop offset="0.72" stop-color="#463dbc"/><stop offset="0.73" stop-color="#463dbb"/><stop offset="0.73" stop-color="#473cbb"/><stop offset="0.74" stop-color="#473bba"/><stop offset="0.75" stop-color="#483aba"/><stop offset="0.76" stop-color="#4839b9"/><stop offset="0.77" stop-color="#4938b9"/><stop offset="0.77" stop-color="#4938b8"/><stop offset="0.78" stop-color="#4a37b7"/><stop offset="0.79" stop-color="#4a36b7"/><stop offset="0.8" stop-color="#4b35b6"/><stop offset="0.8" stop-color="#4b34b6"/><stop offset="0.81" stop-color="#4c33b5"/><stop offset="0.82" stop-color="#4c33b4"/><stop offset="0.83" stop-color="#4d32b4"/><stop offset="0.84" stop-color="#4d31b3"/><stop offset="0.84" stop-color="#4e30b3"/><stop offset="0.85" stop-color="#4e2fb2"/><stop offset="0.86" stop-color="#4f2eb1"/><stop offset="0.87" stop-color="#4f2eb1"/><stop offset="0.88" stop-color="#502db0"/><stop offset="0.88" stop-color="#502cb0"/><stop offset="0.89" stop-color="#512baf"/><stop offset="0.9" stop-color="#512aae"/><stop offset="0.91" stop-color="#5229ae"/><stop offset="0.91" stop-color="#5229ad"/><stop offset="0.92" stop-color="#5228ad"/><stop offset="0.94" stop-color="#5327ac"/><stop offset="1" stop-color="#5327ac"/></linearGradient><clipPath id="clip-path-3"><rect class="cls-1" x="328" y="263" width="36" height="36"/></clipPath><clipPath id="clip-path-4"><path class="cls-1" d="M350.45,263.61a17.63,17.63,0,0,0-2.79-.45,16.72,16.72,0,0,0-2.83,0,16.53,16.53,0,0,0-2.79.44,17.76,17.76,0,0,0-5.2,2.16,16.78,16.78,0,0,0-2.27,1.67,17.17,17.17,0,0,0-2,2,16.85,16.85,0,0,0-1.64,2.3l-1,1.72a21.45,21.45,0,0,0-1,3,17.85,17.85,0,0,0-.45,6.23,17.84,17.84,0,0,0,.6,3.08,17.1,17.1,0,0,0,1.14,2.93,17.81,17.81,0,0,0,1.63,2.67,17.22,17.22,0,0,0,2.08,2.35,17.86,17.86,0,0,0,2.46,1.95,18.74,18.74,0,0,0,2.76,1.48,17.42,17.42,0,0,0,6.08,1.39,16.51,16.51,0,0,0,3.14-.12,17.34,17.34,0,0,0,5.95-1.88,17.4,17.4,0,0,0,2.64-1.69,17.73,17.73,0,0,0,2.29-2.13,17,17,0,0,0,1.89-2.51c.48-.82.89-1.72,1.3-2.54h.08a26.26,26.26,0,0,0,.82-2.55,16.45,16.45,0,0,0,.33-1.7c.08-.58.14-1.16.17-1.73s0-1.17,0-1.75-.09-1.15-.17-1.73a16.53,16.53,0,0,0-.35-1.7,18.82,18.82,0,0,0-1.17-3.28c-.25-.52-.53-1-.82-1.53s-.63-1-1-1.45-.72-.91-1.1-1.34-.81-.84-1.23-1.23-.88-.76-1.35-1.11a16.82,16.82,0,0,0-3-1.79c-.52-.25-1.06-.47-1.6-.67S351,263.76,350.45,263.61Z"/></clipPath><linearGradient id="linear-gradient-2" x1="832.02" y1="-45.2" x2="893.12" y2="-45.2" gradientTransform="matrix(0.67, 0.14, 0.14, -0.67, -227.8, 130.14)" gradientUnits="userSpaceOnUse"><stop offset="0" stop-color="#2771e0"/><stop offset="0.06" stop-color="#2771e0"/><stop offset="0.09" stop-color="#2771e0"/><stop offset="0.11" stop-color="#2870df"/><stop offset="0.13" stop-color="#286fde"/><stop offset="0.14" stop-color="#296ede"/><stop offset="0.16" stop-color="#296edd"/><stop offset="0.17" stop-color="#2a6ddd"/><stop offset="0.19" stop-color="#2a6cdc"/><stop offset="0.2" stop-color="#2b6bdb"/><stop offset="0.22" stop-color="#2b6adb"/><stop offset="0.23" stop-color="#2c6ada"/><stop offset="0.25" stop-color="#2c69da"/><stop offset="0.26" stop-color="#2d68d9"/><stop offset="0.27" stop-color="#2d68d9"/><stop offset="0.27" stop-color="#2d67d8"/><stop offset="0.28" stop-color="#2e66d8"/><stop offset="0.29" stop-color="#2e66d7"/><stop offset="0.3" stop-color="#2f65d7"/><stop offset="0.3" stop-color="#2f64d7"/><stop offset="0.31" stop-color="#2f64d6"/><stop offset="0.32" stop-color="#3063d6"/><stop offset="0.33" stop-color="#3062d5"/><stop offset="0.34" stop-color="#3162d5"/><stop offset="0.34" stop-color="#3161d4"/><stop offset="0.35" stop-color="#3160d4"/><stop offset="0.36" stop-color="#3260d3"/><stop offset="0.37" stop-color="#325fd3"/><stop offset="0.38" stop-color="#335ed3"/><stop offset="0.38" stop-color="#335ed2"/><stop offset="0.39" stop-color="#335dd2"/><stop offset="0.4" stop-color="#345cd1"/><stop offset="0.41" stop-color="#345cd1"/><stop offset="0.41" stop-color="#345bd0"/><stop offset="0.42" stop-color="#355ad0"/><stop offset="0.43" stop-color="#355ad0"/><stop offset="0.44" stop-color="#3659cf"/><stop offset="0.45" stop-color="#3658cf"/><stop offset="0.45" stop-color="#3658ce"/><stop offset="0.46" stop-color="#3757ce"/><stop offset="0.47" stop-color="#3756cd"/><stop offset="0.48" stop-color="#3856cd"/><stop offset="0.48" stop-color="#3855cc"/><stop offset="0.49" stop-color="#3854cc"/><stop offset="0.5" stop-color="#3954cc"/><stop offset="0.51" stop-color="#3953cb"/><stop offset="0.52" stop-color="#3952cb"/><stop offset="0.52" stop-color="#3a52ca"/><stop offset="0.53" stop-color="#3a51ca"/><stop offset="0.54" stop-color="#3b50c9"/><stop offset="0.55" stop-color="#3b50c9"/><stop offset="0.55" stop-color="#3b4fc8"/><stop offset="0.56" stop-color="#3c4ec8"/><stop offset="0.57" stop-color="#3c4dc7"/><stop offset="0.58" stop-color="#3d4dc7"/><stop offset="0.59" stop-color="#3d4cc6"/><stop offset="0.59" stop-color="#3e4bc6"/><stop offset="0.6" stop-color="#3e4ac5"/><stop offset="0.61" stop-color="#3f49c5"/><stop offset="0.62" stop-color="#3f48c4"/><stop offset="0.63" stop-color="#4048c3"/><stop offset="0.63" stop-color="#4047c3"/><stop offset="0.64" stop-color="#4146c2"/><stop offset="0.65" stop-color="#4145c2"/><stop offset="0.66" stop-color="#4244c1"/><stop offset="0.66" stop-color="#4243c0"/><stop offset="0.67" stop-color="#4343c0"/><stop offset="0.68" stop-color="#4342bf"/><stop offset="0.69" stop-color="#4441bf"/><stop offset="0.7" stop-color="#4440be"/><stop offset="0.7" stop-color="#453fbd"/><stop offset="0.71" stop-color="#453ebd"/><stop offset="0.72" stop-color="#463dbc"/><stop offset="0.73" stop-color="#463dbc"/><stop offset="0.73" stop-color="#473cbb"/><stop offset="0.74" stop-color="#473bba"/><stop offset="0.75" stop-color="#483aba"/><stop offset="0.76" stop-color="#4839b9"/><stop offset="0.77" stop-color="#4938b9"/><stop offset="0.77" stop-color="#4938b8"/><stop offset="0.78" stop-color="#4a37b7"/><stop offset="0.79" stop-color="#4a36b7"/><stop offset="0.8" stop-color="#4b35b6"/><stop offset="0.8" stop-color="#4b34b6"/><stop offset="0.81" stop-color="#4c33b5"/><stop offset="0.82" stop-color="#4c33b4"/><stop offset="0.83" stop-color="#4d32b4"/><stop offset="0.84" stop-color="#4d31b3"/><stop offset="0.84" stop-color="#4e30b3"/><stop offset="0.85" stop-color="#4e2fb2"/><stop offset="0.86" stop-color="#4f2eb1"/><stop offset="0.87" stop-color="#4f2eb1"/><stop offset="0.88" stop-color="#502db0"/><stop offset="0.88" stop-color="#502cb0"/><stop offset="0.89" stop-color="#512baf"/><stop offset="0.9" stop-color="#512aae"/><stop offset="0.91" stop-color="#5229ae"/><stop offset="0.91" stop-color="#5228ad"/><stop offset="0.92" stop-color="#5328ad"/><stop offset="0.94" stop-color="#5327ac"/><stop offset="1" stop-color="#5327ac"/></linearGradient><clipPath id="clip-path-5"><rect class="cls-1" x="9.29" width="304.71" height="375"/></clipPath><clipPath id="clip-path-6"><path class="cls-1" d="M298.79,308a17.57,17.57,0,0,0-7.41.05,17,17,0,0,0-3.53,1.17,17.18,17.18,0,0,0-3.21,1.88c-3.44,2.44-7,4.75-10.61,6.9s-7.35,4.15-11.15,6-7.67,3.52-11.61,5-7.94,2.86-12,4-8.15,2.19-12.29,3-8.3,1.5-12.5,2-8.4.8-12.61.93-8.44.09-12.66-.14l-2.4-.13a151.56,151.56,0,0,1-138.21-182c17-82,97.13-134.7,179-117.72A151,151,0,0,1,283,62.71h.06a16.94,16.94,0,0,0,3.31,2.4A19.13,19.13,0,0,0,291.44,67a18.63,18.63,0,0,0,3,.34,16.73,16.73,0,0,0,3-.17,17.44,17.44,0,0,0,2.93-.65,18.05,18.05,0,0,0,2.78-1.14,17.74,17.74,0,0,0,4.8-3.57,17.5,17.5,0,0,0,1.89-2.33,17.79,17.79,0,0,0,1.48-2.62,17.34,17.34,0,0,0,1-2.83,16.31,16.31,0,0,0,.54-3,17.79,17.79,0,0,0,.05-3,18.71,18.71,0,0,0-.46-3,19.06,19.06,0,0,0-.95-2.85,16.83,16.83,0,0,0-1.41-2.65,17.72,17.72,0,0,0-4-4.44H306l-1.17-.82-.27-.21A186.62,186.62,0,0,0,234.9,3.92C133.65-17,34.52,48.06,13.5,149.48A187.51,187.51,0,0,0,177.88,374a186.33,186.33,0,0,0,75.78-7.83,188.1,188.1,0,0,0,18-6.74A187.57,187.57,0,0,0,305,340.62l.34-.21.76-.61.34-.21a18.26,18.26,0,0,0,6.32-10.31,17.44,17.44,0,0,0,.27-1.74c.06-.59.09-1.18.1-1.77s0-1.17-.08-1.76a14.58,14.58,0,0,0-.25-1.74,17.19,17.19,0,0,0-.41-1.72c-.17-.56-.36-1.12-.58-1.66s-.47-1.08-.74-1.6-.58-1-.9-1.52-.67-1-1-1.42-.77-.9-1.18-1.32a16.09,16.09,0,0,0-1.29-1.19c-.45-.38-.92-.73-1.41-1.07a16.17,16.17,0,0,0-1.5-.91,16.6,16.6,0,0,0-1.59-.77,16.33,16.33,0,0,0-1.65-.61A17,17,0,0,0,298.79,308Z"/></clipPath><linearGradient id="linear-gradient-3" x1="368.41" y1="384.76" x2="774.43" y2="-318.48" gradientTransform="matrix(0.67, 0.14, 0.14, -0.67, -227.8, 130.14)" gradientUnits="userSpaceOnUse"><stop offset="0" stop-color="#0091d4"/><stop offset="0.13" stop-color="#0091d4"/><stop offset="0.19" stop-color="#0091d4"/><stop offset="0.2" stop-color="#0092d4"/><stop offset="0.22" stop-color="#0092d4"/><stop offset="0.23" stop-color="#0093d4"/><stop offset="0.25" stop-color="#0094d3"/><stop offset="0.27" stop-color="#0094d3"/><stop offset="0.28" stop-color="#0095d3"/><stop offset="0.3" stop-color="#0096d3"/><stop offset="0.31" stop-color="#0096d3"/><stop offset="0.33" stop-color="#0097d3"/><stop offset="0.33" stop-color="#0098d3"/><stop offset="0.34" stop-color="#0098d2"/><stop offset="0.36" stop-color="#0099d2"/><stop offset="0.38" stop-color="#0099d2"/><stop offset="0.39" stop-color="#009ad2"/><stop offset="0.4" stop-color="#009bd2"/><stop offset="0.41" stop-color="#009bd2"/><stop offset="0.41" stop-color="#009cd2"/><stop offset="0.42" stop-color="#009cd2"/><stop offset="0.43" stop-color="#009dd1"/><stop offset="0.44" stop-color="#009ed1"/><stop offset="0.45" stop-color="#009ed1"/><stop offset="0.45" stop-color="#009fd1"/><stop offset="0.46" stop-color="#009fd1"/><stop offset="0.47" stop-color="#00a0d1"/><stop offset="0.48" stop-color="#00a1d1"/><stop offset="0.48" stop-color="#00a1d0"/><stop offset="0.49" stop-color="#00a2d0"/><stop offset="0.5" stop-color="#00a2d0"/><stop offset="0.51" stop-color="#00a3d0"/><stop offset="0.52" stop-color="#00a4d0"/><stop offset="0.52" stop-color="#00a4d0"/><stop offset="0.53" stop-color="#00a5d0"/><stop offset="0.54" stop-color="#00a5cf"/><stop offset="0.55" stop-color="#00a6cf"/><stop offset="0.55" stop-color="#00a7cf"/><stop offset="0.56" stop-color="#00a7cf"/><stop offset="0.57" stop-color="#00a8cf"/><stop offset="0.58" stop-color="#00a8cf"/><stop offset="0.59" stop-color="#00a9cf"/><stop offset="0.59" stop-color="#00aace"/><stop offset="0.6" stop-color="#00aace"/><stop offset="0.61" stop-color="#00abce"/><stop offset="0.62" stop-color="#00abce"/><stop offset="0.63" stop-color="#00acce"/><stop offset="0.63" stop-color="#00acce"/><stop offset="0.64" stop-color="#00adce"/><stop offset="0.65" stop-color="#00aecd"/><stop offset="0.66" stop-color="#00aecd"/><stop offset="0.66" stop-color="#00afcd"/><stop offset="0.67" stop-color="#00afcd"/><stop offset="0.67" stop-color="#00b0cd"/><stop offset="0.68" stop-color="#00b0cd"/><stop offset="0.69" stop-color="#00b1cd"/><stop offset="0.7" stop-color="#00b1cd"/><stop offset="0.7" stop-color="#00b2cd"/><stop offset="0.71" stop-color="#00b2cc"/><stop offset="0.72" stop-color="#00b3cc"/><stop offset="0.73" stop-color="#00b4cc"/><stop offset="0.73" stop-color="#00b4cc"/><stop offset="0.74" stop-color="#00b5cc"/><stop offset="0.75" stop-color="#00b6cc"/><stop offset="0.76" stop-color="#00b6cb"/><stop offset="0.77" stop-color="#00b7cb"/><stop offset="0.77" stop-color="#00b8cb"/><stop offset="0.78" stop-color="#00b8cb"/><stop offset="0.79" stop-color="#00b9cb"/><stop offset="0.8" stop-color="#00baca"/><stop offset="0.8" stop-color="#00baca"/><stop offset="0.81" stop-color="#00bbca"/><stop offset="0.82" stop-color="#00bcca"/><stop offset="0.83" stop-color="#00bcca"/><stop offset="0.84" stop-color="#00bdca"/><stop offset="0.84" stop-color="#00bec9"/><stop offset="0.85" stop-color="#00bec9"/><stop offset="0.86" stop-color="#00bfc9"/><stop offset="0.88" stop-color="#00bfc9"/><stop offset="1" stop-color="#00bfc9"/></linearGradient><clipPath id="clip-path-7"><rect class="cls-1" x="106" y="71" width="204" height="228"/></clipPath><clipPath id="clip-path-8"><path class="cls-1" d="M165.66,294.48a112.18,112.18,0,0,0,43.15,3.42,113.39,113.39,0,0,0,14.28-2.59l4-1.1h.07c2.09-.6,4.15-1.26,6.2-2s4.07-1.49,6.08-2.33,4-1.72,5.93-2.67,3.88-2,5.78-3,3.75-2.17,5.58-3.34,3.63-2.38,5.39-3.65,3.48-2.59,5.17-4,3.33-2.79,4.93-4.25,3.17-3,4.68-4.53,3-3.14,4.42-4.78,2.8-3.32,4.13-5,2.61-3.46,3.84-5.26,2.41-3.61,3.53-5.47,2.19-3.75,3.21-5.67,2-3.87,2.88-5.84,1.75-4,2.54-6,1.52-4.06,2.19-6.13,1.28-4.15,1.83-6.25,1.05-4.22,1.48-6.35.8-4.27,1.11-6.42.55-4.31.74-6.47.3-4.33.36-6.5.06-4.35,0-6.52-.19-4.34-.38-6.5-.44-4.32-.75-6.47-.69-4.29-1.12-6.42-.94-4.24-1.49-6.34-1.18-4.18-1.85-6.25-1.42-4.1-2.21-6.12-1.65-4-2.56-6-1.87-3.91-2.89-5.83-2.09-3.81-3.22-5.66-2.31-3.68-3.54-5.47-2.52-3.54-3.85-5.25-2.72-3.39-4.15-5-2.9-3.23-4.42-4.78-3.09-3-4.7-4.51-3.25-2.87-4.94-4.24-3.42-2.68-5.18-4-3.56-2.48-5.4-3.64-3.69-2.27-5.59-3.33-3.82-2-5.78-3-3.93-1.83-5.94-2.66-4-1.6-6.08-2.31-4.12-1.37-6.21-2-4.19-1.13-6.31-1.6-4.25-.89-6.39-1.24-4.29-.64-6.45-.87-4.32-.39-6.49-.5-4.33-.14-6.5-.12-4.34.11-6.51.25-4.32.35-6.48.63-4.29.6-6.43,1-4.25.85-6.36,1.36-4.2,1.09-6.28,1.73-4.13,1.33-6.16,2.08-4.06,1.57-6,2.44S146.53,83,144.59,84s-3.84,2-5.72,3.11-3.72,2.24-5.53,3.44S129.76,93,128,94.28s-3.44,2.65-5.1,4-3.29,2.84-4.87,4.34-3.11,3-4.6,4.6l-3,3.3a9.74,9.74,0,0,0-1,1.58,19.38,19.38,0,0,0-2.29,6.42,19.55,19.55,0,0,0-.26,3.42,18.59,18.59,0,0,0,.35,3.4,19.9,19.9,0,0,0,.94,3.29,19.37,19.37,0,0,0,1.52,3.06,19.23,19.23,0,0,0,4.51,5.11,19.35,19.35,0,0,0,2.87,1.87,18.49,18.49,0,0,0,3.14,1.33,19,19,0,0,0,3.34.76,19.44,19.44,0,0,0,6.8-.3,19.31,19.31,0,0,0,6.27-2.66,18.94,18.94,0,0,0,2.69-2.11l1.79-2q2.3-2.46,4.82-4.7t5.22-4.25c1.8-1.34,3.67-2.6,5.58-3.76s3.88-2.26,5.9-3.25,4.07-1.9,6.16-2.72,4.23-1.52,6.39-2.14,4.34-1.14,6.54-1.56,4.43-.75,6.67-1,4.47-.35,6.72-.37,4.49,0,6.73.23,4.46.46,6.68.84,4.4.86,6.58,1.43,4.31,1.25,6.42,2,4.18,1.63,6.22,2.58,4,2,6,3.14,3.82,2.35,5.65,3.65,3.6,2.68,5.31,4.14,3.35,3,4.91,4.61,3.07,3.28,4.49,5,2.75,3.54,4,5.41,2.43,3.77,3.52,5.74,2.08,4,3,6,1.72,4.15,2.44,6.28,1.34,4.29,1.86,6.48,1,4.39,1.28,6.61.55,4.46.67,6.71.15,4.49.08,6.73-.25,4.49-.53,6.72-.65,4.45-1.13,6.65-1,4.36-1.72,6.51-1.43,4.26-2.29,6.33-1.81,4.12-2.85,6.11-2.17,3.93-3.38,5.82-2.52,3.73-3.9,5.5-2.83,3.48-4.36,5.13-3.14,3.21-4.82,4.71-3.41,2.92-5.21,4.27-3.66,2.6-5.57,3.77-3.88,2.27-5.89,3.27-4.07,1.91-6.16,2.72-4.22,1.54-6.38,2.16-4.34,1.15-6.54,1.58-4.43.76-6.66,1-4.47.36-6.72.39-4.49,0-6.73-.22-4.46-.44-6.68-.82-4.41-.84-6.58-1.42-4.32-1.23-6.43-2a73.25,73.25,0,0,1-25.08-15.12c-.06,0-.06,0-.06-.07l-1.58-1.44a18.42,18.42,0,0,0-5.82-3.46,19.63,19.63,0,0,0-3.28-.89,19.51,19.51,0,0,0-6.76,0,18.75,18.75,0,0,0-3.28.9,18.27,18.27,0,0,0-3.06,1.46,19.94,19.94,0,0,0-2.77,2,20.17,20.17,0,0,0-2.36,2.44,19,19,0,0,0-1.9,2.81,20,20,0,0,0-1.38,3.11,19.72,19.72,0,0,0-.8,3.31,19.19,19.19,0,0,0,.18,6.76,19.43,19.43,0,0,0,1,3.26,20.54,20.54,0,0,0,1.54,3,20.08,20.08,0,0,0,2,2.71,13,13,0,0,0,2.2,2.13h.07a112.86,112.86,0,0,0,46.37,25.71Z"/></clipPath><linearGradient id="linear-gradient-4" x1="-800.63" y1="377.93" x2="-818.23" y2="-53.35" gradientTransform="matrix(-0.32, 0.61, 0.61, 0.32, -149.89, 625.46)" gradientUnits="userSpaceOnUse"><stop offset="0" stop-color="#00b6f3"/><stop offset="0.04" stop-color="#00b6f3"/><stop offset="0.13" stop-color="#00b6f3"/><stop offset="0.16" stop-color="#00b6f3"/><stop offset="0.17" stop-color="#00b6f3"/><stop offset="0.19" stop-color="#00b6f2"/><stop offset="0.2" stop-color="#00b6f1"/><stop offset="0.22" stop-color="#00b6f1"/><stop offset="0.23" stop-color="#00b6f0"/><stop offset="0.25" stop-color="#00b6f0"/><stop offset="0.27" stop-color="#00b6ef"/><stop offset="0.28" stop-color="#00b6ef"/><stop offset="0.3" stop-color="#00b6ee"/><stop offset="0.31" stop-color="#00b5ee"/><stop offset="0.33" stop-color="#00b5ed"/><stop offset="0.34" stop-color="#00b5ec"/><stop offset="0.36" stop-color="#00b5ec"/><stop offset="0.38" stop-color="#00b5eb"/><stop offset="0.39" stop-color="#00b5eb"/><stop offset="0.41" stop-color="#00b5ea"/><stop offset="0.42" stop-color="#00b5e9"/><stop offset="0.44" stop-color="#00b5e8"/><stop offset="0.45" stop-color="#00b5e7"/><stop offset="0.47" stop-color="#00b4e6"/><stop offset="0.48" stop-color="#00b4e5"/><stop offset="0.5" stop-color="#00b4e4"/><stop offset="0.52" stop-color="#00b4e3"/><stop offset="0.53" stop-color="#00b4e2"/><stop offset="0.55" stop-color="#00b4e1"/><stop offset="0.56" stop-color="#00b4e0"/><stop offset="0.58" stop-color="#00b3df"/><stop offset="0.59" stop-color="#00b3de"/><stop offset="0.61" stop-color="#00b3dd"/><stop offset="0.63" stop-color="#00b3dc"/><stop offset="0.64" stop-color="#00b3db"/><stop offset="0.66" stop-color="#00b3da"/><stop offset="0.67" stop-color="#00b2d9"/><stop offset="0.69" stop-color="#00b2d8"/><stop offset="0.7" stop-color="#00b2d7"/><stop offset="0.72" stop-color="#00b2d6"/><stop offset="0.73" stop-color="#00b2d5"/><stop offset="0.75" stop-color="#00b2d4"/><stop offset="0.77" stop-color="#00b2d3"/><stop offset="0.78" stop-color="#00b1d2"/><stop offset="0.8" stop-color="#00b1d1"/><stop offset="0.8" stop-color="#00b1d1"/><stop offset="0.81" stop-color="#00b1d0"/><stop offset="0.82" stop-color="#00b1d0"/><stop offset="0.83" stop-color="#00b1cf"/><stop offset="0.84" stop-color="#00b1cf"/><stop offset="0.84" stop-color="#00b1ce"/><stop offset="0.85" stop-color="#00b1cd"/><stop offset="0.86" stop-color="#00b1cd"/><stop offset="0.87" stop-color="#00b0cc"/><stop offset="0.88" stop-color="#00b0cc"/><stop offset="0.88" stop-color="#00b0cb"/><stop offset="0.89" stop-color="#00b0cb"/><stop offset="0.9" stop-color="#00b0ca"/><stop offset="0.91" stop-color="#00b0c9"/><stop offset="0.94" stop-color="#00b0c9"/><stop offset="0.96" stop-color="#00b0c9"/><stop offset="1" stop-color="#00b0c9"/></linearGradient><clipPath id="clip-path-9"><rect class="cls-1" x="83" y="151" width="148" height="68"/></clipPath><clipPath id="clip-path-10"><path class="cls-1" d="M229.75,180.55c-.12-.92-.29-1.85-.49-2.77s-.45-1.83-.72-2.73-.6-1.78-1-2.65-.74-1.72-1.17-2.56-.88-1.66-1.38-2.46-1-1.58-1.58-2.33-1.15-1.49-1.77-2.19-1.28-1.38-2-2-1.38-1.28-2.11-1.87-1.49-1.14-2.27-1.67-1.57-1-2.39-1.48-1.66-.89-2.52-1.27a26.89,26.89,0,0,0-2.61-1.06c-.88-.32-1.78-.6-2.69-.84s-1.83-.44-2.75-.6-1.86-.29-2.79-.37-1.88-.13-2.81-.13-1.88,0-2.82.1-1.87.19-2.8.34-1.84.34-2.75.57-1.81.5-2.7.81-1.76.65-2.62,1-1.71.79-2.53,1.24-1.63.94-2.41,1.46-1.55,1.07-2.29,1.65-1.45,1.19-2.13,1.84-1.34,1.31-2,2-1.23,1.42-1.8,2.17-1.1,1.52-1.61,2.31-1,1.61-1.41,2.45-.83,1.68-1.19,2.55a27.9,27.9,0,0,0-1,2.64c-6.6,3.72-15.66,6-25.76,6a56.65,56.65,0,0,1-22.88-4.53,16.85,16.85,0,0,0-6.52-6.4,17.07,17.07,0,0,0-4.33-1.79,19.62,19.62,0,0,0-2.75-.41,17.69,17.69,0,0,0-3.78,0,17.77,17.77,0,0,0-7.1,2.46,18.21,18.21,0,0,0-3,2.32h-.06l-1.31,1.44a12.93,12.93,0,0,0-1.79,2.54q-.42.76-.78,1.56a17.76,17.76,0,0,0-1.1,3.3,16.72,16.72,0,0,0-.3,1.72c-.07.57-.11,1.15-.13,1.73s0,1.17,0,1.74.12,1.16.21,1.73.23,1.15.38,1.7.34,1.12.55,1.66.44,1.07.7,1.59a17.45,17.45,0,0,0,.86,1.52c.31.49.64,1,1,1.43s.74.89,1.13,1.32.83.82,1.27,1.2a14.37,14.37,0,0,0,1.37,1.07,15.86,15.86,0,0,0,1.47.93,17.3,17.3,0,0,0,5,1.91,17.88,17.88,0,0,0,5.36.3,19.54,19.54,0,0,0,2.75-.49,17.3,17.3,0,0,0,7.55-4.05l2-2.14s0-.06.07-.06l1.24-1.86A55.32,55.32,0,0,1,139,189.56c10.1,0,19.16,2.27,25.76,6.05.33,1,.7,1.94,1.12,2.88s.88,1.86,1.38,2.76,1,1.77,1.63,2.61,1.21,1.67,1.87,2.46,1.35,1.55,2.08,2.28,1.49,1.42,2.28,2.07,1.62,1.28,2.46,1.86,1.73,1.12,2.63,1.62,1.82,1,2.76,1.38,1.9.78,2.87,1.11,2,.61,3,.84,2,.43,3,.57,2,.24,3.07.29,2.05,0,3.08,0,2.05-.14,3.07-.28,2-.33,3-.56a30.44,30.44,0,0,0,3-.84c1-.32,1.94-.69,2.88-1.1s1.86-.87,2.76-1.37,1.78-1,2.63-1.61,1.68-1.2,2.47-1.85,1.56-1.35,2.29-2.07,1.42-1.48,2.09-2.27,1.28-1.61,1.87-2.45,1.13-1.72,1.64-2.62,1-1.81,1.39-2.75.8-1.9,1.13-2.87.62-2,.87-3,.43-2,.59-3,.25-2,.3-3.07.07-2.06,0-3.09-.13-2.05-.26-3.07Z"/></clipPath><linearGradient id="linear-gradient-5" x1="449.59" y1="35.4" x2="678.68" y2="35.4" gradientTransform="matrix(0.67, 0.14, 0.14, -0.67, -227.8, 130.14)" gradientUnits="userSpaceOnUse"><stop offset="0" stop-color="#2771e0"/><stop offset="0.13" stop-color="#2771e0"/><stop offset="0.16" stop-color="#2771e0"/><stop offset="0.17" stop-color="#2770df"/><stop offset="0.19" stop-color="#2870df"/><stop offset="0.2" stop-color="#286fde"/><stop offset="0.22" stop-color="#296ede"/><stop offset="0.23" stop-color="#296ddd"/><stop offset="0.25" stop-color="#2a6ddd"/><stop offset="0.27" stop-color="#2a6cdc"/><stop offset="0.28" stop-color="#2b6bdb"/><stop offset="0.3" stop-color="#2b6bdb"/><stop offset="0.31" stop-color="#2c6ada"/><stop offset="0.33" stop-color="#2c69da"/><stop offset="0.34" stop-color="#2d68d9"/><stop offset="0.35" stop-color="#2d68d9"/><stop offset="0.36" stop-color="#2d67d8"/><stop offset="0.37" stop-color="#2e67d8"/><stop offset="0.38" stop-color="#2e66d8"/><stop offset="0.38" stop-color="#2e65d7"/><stop offset="0.39" stop-color="#2f65d7"/><stop offset="0.4" stop-color="#2f64d6"/><stop offset="0.41" stop-color="#2f64d6"/><stop offset="0.41" stop-color="#3063d6"/><stop offset="0.42" stop-color="#3062d5"/><stop offset="0.43" stop-color="#3162d5"/><stop offset="0.44" stop-color="#3161d4"/><stop offset="0.45" stop-color="#3161d4"/><stop offset="0.45" stop-color="#3260d4"/><stop offset="0.46" stop-color="#325fd3"/><stop offset="0.47" stop-color="#325fd3"/><stop offset="0.48" stop-color="#335ed2"/><stop offset="0.48" stop-color="#335ed2"/><stop offset="0.49" stop-color="#335dd2"/><stop offset="0.5" stop-color="#345cd1"/><stop offset="0.51" stop-color="#345cd1"/><stop offset="0.52" stop-color="#345bd1"/><stop offset="0.52" stop-color="#355ad0"/><stop offset="0.53" stop-color="#355ad0"/><stop offset="0.54" stop-color="#3559cf"/><stop offset="0.55" stop-color="#3659cf"/><stop offset="0.55" stop-color="#3658cf"/><stop offset="0.56" stop-color="#3657ce"/><stop offset="0.57" stop-color="#3757ce"/><stop offset="0.58" stop-color="#3756cd"/><stop offset="0.59" stop-color="#3856cd"/><stop offset="0.59" stop-color="#3855cd"/><stop offset="0.6" stop-color="#3854cc"/><stop offset="0.61" stop-color="#3954cc"/><stop offset="0.62" stop-color="#3953cb"/><stop offset="0.63" stop-color="#3953cb"/><stop offset="0.63" stop-color="#3a52cb"/><stop offset="0.64" stop-color="#3a51ca"/><stop offset="0.65" stop-color="#3a51ca"/><stop offset="0.66" stop-color="#3b50c9"/><stop offset="0.66" stop-color="#3b50c9"/><stop offset="0.67" stop-color="#3b4fc9"/><stop offset="0.68" stop-color="#3c4ec8"/><stop offset="0.69" stop-color="#3c4ec8"/><stop offset="0.7" stop-color="#3d4dc7"/><stop offset="0.7" stop-color="#3d4cc7"/><stop offset="0.71" stop-color="#3d4bc6"/><stop offset="0.72" stop-color="#3e4bc6"/><stop offset="0.73" stop-color="#3e4ac5"/><stop offset="0.73" stop-color="#3f49c4"/><stop offset="0.74" stop-color="#3f48c4"/><stop offset="0.75" stop-color="#4048c3"/><stop offset="0.76" stop-color="#4047c3"/><stop offset="0.77" stop-color="#4146c2"/><stop offset="0.77" stop-color="#4145c2"/><stop offset="0.78" stop-color="#4145c1"/><stop offset="0.79" stop-color="#4244c1"/><stop offset="0.8" stop-color="#4243c0"/><stop offset="0.8" stop-color="#4342c0"/><stop offset="0.81" stop-color="#4342bf"/><stop offset="0.82" stop-color="#4441bf"/><stop offset="0.83" stop-color="#4440be"/><stop offset="0.84" stop-color="#453fbd"/><stop offset="0.84" stop-color="#453fbd"/><stop offset="0.85" stop-color="#453ebc"/><stop offset="0.86" stop-color="#463dbc"/><stop offset="0.87" stop-color="#463cbb"/><stop offset="0.88" stop-color="#473cbb"/><stop offset="0.88" stop-color="#473bba"/><stop offset="0.89" stop-color="#483aba"/><stop offset="0.9" stop-color="#4839b9"/><stop offset="0.91" stop-color="#4938b9"/><stop offset="0.91" stop-color="#4938b8"/><stop offset="0.92" stop-color="#4937b7"/><stop offset="0.93" stop-color="#4a36b7"/><stop offset="0.94" stop-color="#4a35b6"/><stop offset="0.95" stop-color="#4b35b6"/><stop offset="0.95" stop-color="#4b34b5"/><stop offset="0.96" stop-color="#4c33b5"/><stop offset="0.97" stop-color="#4c32b4"/><stop offset="0.98" stop-color="#4d32b4"/><stop offset="0.98" stop-color="#4d31b3"/><stop offset="0.99" stop-color="#4e30b3"/><stop offset="1" stop-color="#4e2fb2"/></linearGradient></defs><title>Ask Glimcy f</title><g id="surface1"><g class="cls-2"><g class="cls-3"><path class="cls-4" d="M331.16,75.28l-8.48,41,41,8.5,8.48-41Z"/></g></g><g class="cls-5"><g class="cls-6"><path class="cls-7" d="M329.83,256l-8.51,41.12,41.1,8.53,8.51-41.13Z"/></g></g><g class="cls-8"><g class="cls-9"><path class="cls-10" d="M21.78-60.39l-86.89,420,365.72,75.8,86.89-420Z"/></g></g><g class="cls-11"><g class="cls-12"><path class="cls-13" d="M402.76,121.08,150.91-11.83,13.34,249.32,265.2,382.23Z"/></g></g><g class="cls-14"><g class="cls-15"><path class="cls-16" d="M89.21,122.34,69.9,215.64l154.11,32,19.3-93.31Z"/></g></g></g></svg>