<svg xmlns="http://www.w3.org/2000/svg" viewBox="0 0 32 32"><defs><style>.cls-1{fill:#9f85ec;}.cls-2{fill:#38004d;}</style></defs><title>Holding</title><g id="Holding"><path class="cls-1" d="M16,15a1,1,0,0,1,0-2h2a1,1,0,0,0,0-2H17a1,1,0,0,0-2,0v.18A3,3,0,0,0,16,17a1,1,0,0,1,0,2H14a1,1,0,0,0,0,2h1a1,1,0,0,0,2,0v-.18A3,3,0,0,0,16,15Z"/><path class="cls-2" d="M16,0A16,16,0,0,0,4.07,26.67a1,1,0,1,0,1.49-1.34A14,14,0,0,1,15,2.05v4A10,10,0,0,0,15,26v4a13.82,13.82,0,0,1-6.47-2.12,1,1,0,1,0-1.06,1.7A16,16,0,1,0,16,0ZM26.57,25.15l-2.83-2.83A10,10,0,0,0,17,6.05v-4A14,14,0,0,1,26.57,25.15Zm-4.25-1.41,2.83,2.83A13.93,13.93,0,0,1,17,30V26A10,10,0,0,0,22.32,23.74ZM8,16a8,8,0,1,1,13.66,5.65A8,8,0,0,1,8,16Z"/></g></svg>