<svg xmlns="http://www.w3.org/2000/svg" viewBox="0 0 32 32"><defs><style>.cls-1{fill:#38004d;}.cls-2{fill:#9f85ec;}</style></defs><title>Innovation</title><g id="Innovation"><path class="cls-1" d="M17.28.07A10.94,10.94,0,0,0,7.2,4.4,1,1,0,0,0,8.8,5.6,9,9,0,1,1,23,16.61a19.19,19.19,0,0,0-3.78,7.29c0,.14.66.1-6.47.1A19.07,19.07,0,0,0,9,16.62,9,9,0,0,1,7.18,9.2a1,1,0,0,0-2-.4,11,11,0,0,0,2.2,9.07A17,17,0,0,1,11,25.12V27a5,5,0,0,0,10,0V25.12a17.06,17.06,0,0,1,3.6-7.26A11,11,0,0,0,17.28.07ZM19,27a3,3,0,0,1-6,0V26h6Z"/><path class="cls-2" d="M21,10H19.86a4.17,4.17,0,0,0-.43-1l.81-.81a1,1,0,0,0-1.41-1.41L18,7.57a4.17,4.17,0,0,0-1-.43V6a1,1,0,0,0-2,0V7.14a4.17,4.17,0,0,0-1,.43l-.81-.81a1,1,0,0,0-1.41,1.41l.81.81a4.17,4.17,0,0,0-.43,1H11a1,1,0,0,0,0,2h1.14a4.17,4.17,0,0,0,.43,1l-.81.81a1,1,0,0,0,1.41,1.41l.81-.81a4.17,4.17,0,0,0,1,.43V16a1,1,0,0,0,2,0V14.86a4.17,4.17,0,0,0,1-.43l.81.81a1,1,0,0,0,1.41-1.41L19.43,13a4.17,4.17,0,0,0,.43-1H21a1,1,0,0,0,0-2Zm-5,3a2,2,0,1,1,2-2A2,2,0,0,1,16,13Z"/></g></svg>