<svg xmlns="http://www.w3.org/2000/svg" viewBox="0 0 32 32"><defs><style>.cls-1{fill:#38004d;}.cls-2{fill:#9f85ec;}</style></defs><title>Networking</title><g id="Networking"><path class="cls-1" d="M10,14H22a1,1,0,0,0,1-1,7,7,0,0,0-4-6.33,4,4,0,1,0-5.92,0A7,7,0,0,0,9,13,1,1,0,0,0,10,14ZM14,4a2,2,0,1,1,2,2A2,2,0,0,1,14,4Zm2,4a5,5,0,0,1,4.9,4H11.1A5,5,0,0,1,16,8Z"/><path class="cls-1" d="M10,24.67a4,4,0,1,0-5.92,0A7,7,0,0,0,0,31a1,1,0,0,0,1,1H9a1,1,0,0,0,0-2H2.1A5,5,0,0,1,12,31a1,1,0,0,0,2,0A7,7,0,0,0,10,24.67ZM5,22a2,2,0,1,1,2,2A2,2,0,0,1,5,22Z"/><path class="cls-1" d="M28,24.67a4,4,0,1,0-5.92,0A7,7,0,0,0,18,31a1,1,0,0,0,1,1H31a1,1,0,0,0,1-1A7,7,0,0,0,28,24.67ZM23,22a2,2,0,1,1,2,2A2,2,0,0,1,23,22Zm-2.9,8a5,5,0,0,1,9.8,0Z"/><path class="cls-2" d="M14,23a1,1,0,0,1-.71-1.71L15,19.59V17a1,1,0,0,1,2,0c0,3.26.09,3.32-.29,3.71C14.53,22.89,14.54,23,14,23Z"/><path class="cls-2" d="M18,23c-.54,0-.57-.15-2.71-2.29a1,1,0,0,1,1.42-1.42l2,2A1,1,0,0,1,18,23Z"/></g></svg>